<svg width="196" height="66" viewBox="0 0 196 66" fill="none" xmlns="http://www.w3.org/2000/svg">
<mask id="mask0_156_506" style="mask-type:alpha" maskUnits="userSpaceOnUse" x="0" y="0" width="66" height="66">
<path d="M19.1384 0.211569C19.0533 0.819482 19.0509 2.25051 19.1311 4.50465C19.3354 10.1266 20.612 15.4617 22.961 20.5098C22.9713 20.5321 22.9754 20.5569 22.9727 20.5815C22.9699 20.606 22.9605 20.6293 22.9455 20.6488C22.9305 20.6684 22.9103 20.6834 22.8874 20.6924C22.8644 20.7013 22.8394 20.7037 22.8151 20.6994C16.6533 19.5493 10.4526 19.3949 4.21294 20.2362C1.94907 20.5426 0.610445 20.7517 0.197065 20.8636C0.174577 20.8701 0.15086 20.871 0.127915 20.8664C0.104969 20.8618 0.083467 20.8518 0.0652266 20.8371C0.0469863 20.8224 0.0325423 20.8036 0.0231117 20.7822C0.0136811 20.7608 0.00954139 20.7374 0.0110427 20.714C0.0304959 20.3979 0.0414398 16.9279 0.0438714 10.3041C0.0438714 5.66454 3.08222 1.94777 7.33882 0.463246C8.27258 0.139836 10.1948 -0.0097114 13.1055 0.0146051C16.8721 0.0437849 18.8211 0.0486485 18.9524 0.0291953C18.9771 0.0249422 19.0024 0.026651 19.0263 0.0341877C19.0502 0.0417244 19.0721 0.0548807 19.0902 0.0726015C19.1083 0.0903223 19.122 0.112117 19.1304 0.136247C19.1388 0.160377 19.1415 0.186171 19.1384 0.211569Z" fill="#1F1F1F"/>
<path d="M27.7502 0.0147125C33.4816 0.0268708 41.7468 0.0220071 52.5457 0.000122277C55.3932 -0.00474102 57.3446 0.183713 58.3999 0.565482C62.5653 2.07554 65.2645 5.78502 65.3228 10.3006C65.3471 12.314 65.3435 15.4375 65.3119 19.671C65.3118 19.7252 65.2988 19.7783 65.2741 19.826C65.2493 19.8736 65.2135 19.9143 65.1696 19.9445C64.3793 20.4989 63.4942 21.0303 62.5143 21.5385C59.1732 23.2625 55.6035 24.5586 51.8053 25.4267C49.2618 26.0078 46.9286 26.5756 44.8058 27.13C44.54 27.1988 44.2596 27.1835 44.0033 27.0863C42.486 26.4978 40.9553 25.8802 39.4112 25.2334C36.0141 23.8133 33.3916 21.5129 31.5436 18.3323C28.363 12.8721 27.2833 6.40874 27.597 0.160612C27.5989 0.12126 27.6158 0.0841423 27.6443 0.0569722C27.6729 0.029802 27.7108 0.0146678 27.7502 0.0147125Z" fill="#1F1F1F"/>
<path d="M32.729 32.1927C32.7501 32.2002 32.7686 32.2137 32.7822 32.2314C32.7959 32.2491 32.8042 32.2704 32.8061 32.2926C32.808 32.3149 32.8035 32.3373 32.7931 32.3571C32.7826 32.3769 32.7667 32.3933 32.7472 32.4043C31.5582 33.0827 30.5733 33.6627 29.7928 34.1441C18.5221 41.078 11.322 52.1116 8.88546 65.1513C8.87843 65.1902 8.85629 65.2248 8.82366 65.2479C8.79104 65.271 8.75045 65.2808 8.71038 65.2753C4.82217 64.6626 1.751 61.7738 0.540038 58.1482C0.180154 57.0709 0.00629074 55.2849 0.018449 52.79C0.0646503 40.6391 0.0585701 33.1326 0.000210502 30.2705C-0.00297199 30.1649 0.0300119 30.0615 0.093696 29.9772C0.15738 29.893 0.24794 29.833 0.350368 29.8073C11.0375 27.1264 22.4285 28.6073 32.729 32.1927Z" fill="#1F1F1F"/>
<path d="M65.3228 41.4719C65.3235 41.4883 65.3192 41.5044 65.3104 41.5183C65.3017 41.5321 65.2889 41.5429 65.2738 41.5492C65.2587 41.5556 65.242 41.5572 65.226 41.5538C65.21 41.5504 65.1954 41.5422 65.1842 41.5303C62.3003 38.6147 59.1732 35.9825 55.8029 33.6335C55.7787 33.6174 55.7597 33.5946 55.7482 33.5679C55.7367 33.5412 55.7333 33.5117 55.7383 33.483C55.7434 33.4544 55.7566 33.4278 55.7765 33.4066C55.7964 33.3854 55.8221 33.3705 55.8503 33.3636C59.116 32.5709 62.2152 31.4025 65.1478 29.8584C65.1655 29.8482 65.1855 29.843 65.2059 29.8433C65.2263 29.8436 65.2464 29.8494 65.2641 29.8601C65.2818 29.8708 65.2965 29.886 65.3068 29.9043C65.3171 29.9225 65.3226 29.9432 65.3228 29.9641V41.4719Z" fill="#1F1F1F"/>
<path d="M17.6649 65.4431C17.652 65.4428 17.6393 65.4397 17.6278 65.434C17.6162 65.4283 17.6061 65.4201 17.5981 65.41C17.59 65.3999 17.5844 65.3881 17.5814 65.3756C17.5785 65.363 17.5783 65.3499 17.581 65.3373C19.6722 56.136 24.4869 48.7316 32.025 43.1242C35.6141 40.4567 39.4695 38.4262 43.5912 37.0329C43.6756 37.0041 43.7649 36.9925 43.8538 36.9987C43.9428 37.005 44.0296 37.029 44.1091 37.0694C52.4545 41.264 60.0303 47.4027 65.104 55.3214C65.1874 55.4501 65.2329 55.6005 65.2353 55.7554C65.245 56.2466 65.1952 56.6977 65.0857 57.1086C64.0061 61.1646 61.6146 63.7957 57.9112 65.0018C56.9993 65.2984 55.668 65.448 53.9172 65.4504C40.3121 65.4577 28.228 65.4553 17.6649 65.4431Z" fill="#1F1F1F"/>
</mask>
<g mask="url(#mask0_156_506)">
<rect width="65.7048" height="65.2485" fill="#66CCFF"/>
<g filter="url(#filter0_f_156_506)">
<ellipse cx="65.8453" cy="9.65316" rx="26.605" ry="28.4885" fill="#1C68FF"/>
</g>
<g filter="url(#filter1_f_156_506)">
<ellipse cx="6.52848" cy="62.6276" rx="26.605" ry="23.3872" fill="#27FFF8"/>
</g>
<g filter="url(#filter2_f_156_506)">
<ellipse cx="-3.05349" cy="-11.2903" rx="26.605" ry="23.3872" fill="#6B27FF"/>
</g>
</g>
<path d="M95.0367 52.65C94.4748 53.7477 93.6973 54.6035 92.7042 55.2177C91.7112 55.8188 90.5809 56.1193 89.3134 56.1193C87.9152 56.1193 86.6739 55.7796 85.5893 55.1001C84.5048 54.4075 83.6554 53.4471 83.0413 52.2188C82.4402 50.9905 82.1397 49.5859 82.1397 48.0048C82.1397 46.4498 82.4402 45.0712 83.0413 43.8691C83.6554 42.6669 84.5113 41.7326 85.6089 41.0662C86.7196 40.3868 87.9936 40.047 89.431 40.047C90.7246 40.047 91.8418 40.3541 92.7826 40.9682C93.7235 41.5824 94.4683 42.4317 95.0171 43.5163L92.4494 44.7511C92.1358 44.137 91.6981 43.66 91.1362 43.3203C90.5874 42.9805 89.9733 42.8107 89.2938 42.8107C88.4967 42.8107 87.7846 43.0328 87.1573 43.4771C86.5432 43.9083 86.0597 44.5224 85.7069 45.3195C85.3672 46.1035 85.1973 46.9986 85.1973 48.0048C85.1973 49.037 85.3672 49.9583 85.7069 50.7684C86.0597 51.5786 86.5432 52.2123 87.1573 52.6696C87.7846 53.1139 88.4967 53.336 89.2938 53.336C89.9471 53.336 90.5482 53.1662 91.097 52.8264C91.6458 52.4867 92.1032 52.0098 92.469 51.3956L95.0367 52.65ZM101.92 56.1193C100.822 56.1193 99.8616 55.8776 99.0384 55.3941C98.2282 54.9106 97.601 54.2246 97.1567 53.336C96.7255 52.4344 96.5099 51.376 96.5099 50.1608C96.5099 48.9586 96.7255 47.9133 97.1567 47.0247C97.601 46.1231 98.2282 45.4306 99.0384 44.9471C99.8616 44.4636 100.822 44.2219 101.92 44.2219C103.017 44.2219 103.971 44.4636 104.781 44.9471C105.591 45.4306 106.212 46.1231 106.643 47.0247C107.088 47.9133 107.31 48.9586 107.31 50.1608C107.31 51.376 107.088 52.4344 106.643 53.336C106.212 54.2246 105.591 54.9106 104.781 55.3941C103.971 55.8776 103.017 56.1193 101.92 56.1193ZM101.92 53.4145C102.677 53.4145 103.279 53.1204 103.723 52.5324C104.167 51.9444 104.389 51.1539 104.389 50.1608C104.389 49.1677 104.167 48.3837 103.723 47.8088C103.279 47.2207 102.677 46.9267 101.92 46.9267C101.149 46.9267 100.541 47.2207 100.097 47.8088C99.6525 48.3837 99.4304 49.1677 99.4304 50.1608C99.4304 51.1539 99.6525 51.9444 100.097 52.5324C100.541 53.1204 101.149 53.4145 101.92 53.4145ZM114.189 60.941C112.974 60.941 111.916 60.6796 111.014 60.157C110.126 59.6343 109.472 58.9221 109.054 58.0205L111.485 56.8837C111.746 57.3933 112.112 57.7853 112.582 58.0597C113.053 58.3472 113.562 58.4909 114.111 58.4909C114.895 58.4909 115.503 58.2492 115.934 57.7657C116.365 57.2953 116.581 56.642 116.581 55.8057V54.2965H116.463C116.149 54.8322 115.731 55.2503 115.209 55.5509C114.699 55.8384 114.137 55.9821 113.523 55.9821C112.582 55.9821 111.752 55.7338 111.034 55.2373C110.315 54.7407 109.753 54.0417 109.348 53.14C108.956 52.2384 108.76 51.1931 108.76 50.004C108.76 48.8541 108.95 47.8414 109.329 46.9659C109.721 46.0905 110.263 45.4175 110.955 44.9471C111.661 44.4636 112.471 44.2219 113.386 44.2219C114.013 44.2219 114.594 44.3722 115.13 44.6727C115.666 44.9602 116.11 45.3718 116.463 45.9075H116.581V44.5159H119.442V55.3549C119.442 57.0797 118.978 58.4387 118.051 59.4318C117.136 60.4379 115.849 60.941 114.189 60.941ZM114.229 53.2968C114.96 53.2968 115.548 53.0094 115.993 52.4344C116.437 51.8464 116.659 51.0755 116.659 50.1216C116.659 49.1546 116.43 48.3837 115.973 47.8088C115.516 47.2207 114.908 46.9267 114.15 46.9267C113.418 46.9267 112.824 47.2207 112.367 47.8088C111.909 48.3968 111.681 49.1677 111.681 50.1216C111.681 51.0755 111.909 51.8464 112.367 52.4344C112.837 53.0094 113.458 53.2968 114.229 53.2968ZM121.864 55.8449V44.4963H124.726V46.0055H124.824C125.15 45.4567 125.595 45.0255 126.157 44.7119C126.731 44.3852 127.365 44.2219 128.058 44.2219C129.221 44.2219 130.122 44.5943 130.763 45.3391C131.416 46.0839 131.743 47.1358 131.743 48.4948V55.8449H128.881V49.122C128.881 48.4556 128.705 47.9264 128.352 47.5343C128.012 47.1293 127.555 46.9267 126.98 46.9267C126.3 46.9267 125.751 47.1423 125.333 47.5736C124.928 48.0048 124.726 48.5862 124.726 49.318V55.8449H121.864ZM137.428 41.125C137.428 41.6477 137.265 42.0659 136.938 42.3795C136.624 42.6931 136.2 42.8499 135.664 42.8499C135.141 42.8499 134.73 42.6996 134.429 42.3991C134.129 42.0855 133.978 41.6608 133.978 41.125C133.978 40.5893 134.129 40.1712 134.429 39.8706C134.73 39.557 135.141 39.4002 135.664 39.4002C136.2 39.4002 136.624 39.557 136.938 39.8706C137.265 40.1842 137.428 40.6024 137.428 41.125ZM137.134 44.4963V55.8449H134.272V44.4963H137.134ZM148.209 47.8872C149.345 48.044 150.214 48.4294 150.815 49.0436C151.416 49.6447 151.717 50.4352 151.717 51.4152C151.717 52.8395 151.168 53.9371 150.071 54.7081C148.986 55.466 147.425 55.8449 145.386 55.8449H139.898V40.3214H145.249C147.091 40.3214 148.503 40.6677 149.483 41.3602C150.476 42.0528 150.972 43.0393 150.972 44.3199C150.972 45.2084 150.737 45.9402 150.267 46.5151C149.796 47.0901 149.11 47.5082 148.209 47.7696V47.8872ZM142.858 43.0067V46.5347H144.896C145.863 46.5347 146.608 46.3779 147.131 46.0643C147.653 45.7377 147.915 45.2803 147.915 44.6923C147.915 44.1566 147.653 43.745 147.131 43.4575C146.608 43.1569 145.863 43.0067 144.896 43.0067H142.858ZM145.014 53.14C146.19 53.14 147.091 52.9636 147.719 52.6108C148.359 52.258 148.679 51.755 148.679 51.1016C148.679 50.5005 148.359 50.0432 147.719 49.7296C147.091 49.4029 146.19 49.2396 145.014 49.2396H142.858V53.14H145.014ZM153.849 40.3214H156.71V52.4736C156.71 52.9571 156.952 53.1988 157.435 53.1988H157.984V55.9037H156.553C155.678 55.9037 155.005 55.6881 154.535 55.2569C154.077 54.8257 153.849 54.205 153.849 53.3949V40.3214ZM164.434 56.1193C163.336 56.1193 162.376 55.8776 161.553 55.3941C160.743 54.9106 160.115 54.2246 159.671 53.336C159.24 52.4344 159.024 51.376 159.024 50.1608C159.024 48.9586 159.24 47.9133 159.671 47.0247C160.115 46.1231 160.743 45.4306 161.553 44.9471C162.376 44.4636 163.336 44.2219 164.434 44.2219C165.532 44.2219 166.485 44.4636 167.296 44.9471C168.106 45.4306 168.726 46.1231 169.158 47.0247C169.602 47.9133 169.824 48.9586 169.824 50.1608C169.824 51.376 169.602 52.4344 169.158 53.336C168.726 54.2246 168.106 54.9106 167.296 55.3941C166.485 55.8776 165.532 56.1193 164.434 56.1193ZM164.434 53.4145C165.192 53.4145 165.793 53.1204 166.237 52.5324C166.681 51.9444 166.904 51.1539 166.904 50.1608C166.904 49.1677 166.681 48.3837 166.237 47.8088C165.793 47.2207 165.192 46.9267 164.434 46.9267C163.663 46.9267 163.055 47.2207 162.611 47.8088C162.167 48.3837 161.945 49.1677 161.945 50.1608C161.945 51.1539 162.167 51.9444 162.611 52.5324C163.055 53.1204 163.663 53.4145 164.434 53.4145ZM176.9 56.1193C175.75 56.1193 174.75 55.8776 173.901 55.3941C173.065 54.9106 172.418 54.2246 171.96 53.336C171.503 52.4344 171.274 51.3825 171.274 50.1804C171.274 48.9782 171.503 47.9329 171.96 47.0443C172.418 46.1427 173.065 45.4502 173.901 44.9667C174.75 44.4832 175.75 44.2415 176.9 44.2415C177.88 44.2415 178.781 44.5224 179.605 45.0843C180.428 45.6462 181.049 46.4041 181.467 47.3579L178.879 48.4556C178.67 47.9721 178.37 47.5997 177.978 47.3383C177.599 47.0639 177.174 46.9267 176.704 46.9267C175.946 46.9267 175.338 47.2207 174.881 47.8088C174.424 48.3968 174.195 49.1873 174.195 50.1804C174.195 51.1735 174.417 51.964 174.861 52.552C175.319 53.127 175.933 53.4145 176.704 53.4145C177.161 53.4145 177.586 53.2838 177.978 53.0224C178.37 52.748 178.67 52.3756 178.879 51.9052L181.467 53.0028C181.049 53.9567 180.428 54.7146 179.605 55.2765C178.781 55.8384 177.88 56.1193 176.9 56.1193ZM193.734 55.8449H190.128L186.776 51.18L186.149 51.8072V55.8449H183.287V40.3214H186.149V48.2008L189.559 44.4963H193.46L188.717 49.2396L193.734 55.8449Z" fill="#1F1F1F"/>
<path d="M84.4452 9.72265C86.1195 11.7473 87.5017 13.4508 88.5919 14.833L85.9637 17.2568C85.5549 16.6728 84.9319 15.8454 84.0948 14.7746C83.2771 13.6844 82.5568 12.7402 81.9338 11.942L84.4452 9.72265ZM90.6945 25.3458V11.1244L105.237 11.1244V25.3458L90.6945 25.3458ZM101.82 14.4826H94.1403V22.0167H101.82V14.4826ZM80.9118 18.5125H86.8982V28.9376L89.0884 26.8643L90.2272 30.2809L84.9709 35.0117L82.8099 32.4419C83.0825 32.1694 83.2577 31.9065 83.3355 31.6534C83.4134 31.3809 83.4523 31.0013 83.4523 30.5146V22.0459H80.9118V18.5125ZM87.8327 34.1648C88.9423 33.0941 90.0326 31.8287 91.1033 30.3686C92.174 28.889 93.0988 27.4289 93.8775 25.9882L96.9145 28.0324C96.1553 29.3951 95.1819 30.8942 93.9943 32.5295C92.8068 34.1648 91.6873 35.5568 90.6361 36.7054L87.8327 34.1648ZM101.704 26.0466C102.443 26.9616 103.407 28.2465 104.595 29.9013C105.782 31.5561 106.785 32.9967 107.602 34.2232L104.536 36.5886C103.427 34.7002 101.548 31.9065 98.9003 28.2076L101.704 26.0466ZM127.285 25.7546C127.966 27.3705 128.959 28.743 130.263 29.8721C131.587 31.0013 133.32 32.0039 135.461 32.8799L133.68 36.4426C129.806 34.671 126.983 32.1888 125.211 28.9961C124.549 30.3783 123.625 31.6826 122.437 32.9091C121.269 34.1356 119.79 35.3426 117.998 36.5302L115.662 33.318C117.745 32.2083 119.361 31.0597 120.51 29.8721C121.658 28.6846 122.437 27.3121 122.846 25.7546H117.502V22.338H123.226V16.702H118.729V13.2853H123.255V9.28462H126.73V13.2853H133.213V22.338H135.286V25.7546H127.285ZM117.969 28.6164L118.232 30.5438C117.531 30.7579 116.159 31.2251 114.115 31.9455C112.07 32.6463 110.63 33.1622 109.793 33.4932L109.033 29.8429C109.403 29.765 110.455 29.4536 112.187 28.9084V19.739H109.355V16.3223H112.187V9.45984H115.487V16.3223L118.028 16.3223V19.739H115.487V27.7988C116.558 27.4483 117.307 27.1758 117.736 26.9811L117.969 28.6164ZM126.671 22.338H129.884V16.702H126.701L126.671 22.192V22.338ZM140.134 10.8031L161.13 10.8031V14.3074L140.134 14.3074V10.8031ZM150.822 22.3964C149.887 23.9149 148.807 25.521 147.58 27.2147C146.354 28.9084 145.361 30.1836 144.602 31.0402L155.844 30.2517L152.807 25.7546L155.757 23.9441C156.691 25.2095 157.869 26.874 159.29 28.9376C160.711 31.0013 161.889 32.7534 162.824 34.194L159.787 36.501C159.125 35.3913 158.531 34.4276 158.005 33.61L140.396 35.0409L139.316 31.4198C140.601 30.2128 141.866 28.8111 143.112 27.2147C144.378 25.5989 145.487 23.9928 146.441 22.3964H137.827V18.8629L163.466 18.8629V22.3964L150.822 22.3964ZM169.102 18.1913C168.479 18.9505 167.7 19.8071 166.766 20.7611L165.627 17.286C166.562 16.3905 167.584 15.1445 168.693 13.5481C169.822 11.9323 170.699 10.404 171.322 8.9634L174.68 9.57664C174.232 10.55 173.833 11.3482 173.482 11.9712H179.06C178.651 10.7253 178.349 9.88813 178.155 9.45984L181.747 9.05101L182.272 10.3943C182.448 10.9783 182.642 11.504 182.856 11.9712H190.537V14.395H182.185V15.7675H189.69V17.9284H182.185V19.3302H189.69V21.5203H182.185V22.8344H190.799V25.2874H169.102V18.1913ZM172.402 15.7675H178.914V14.395H172.402V15.7675ZM172.402 19.3302H178.914V17.9284H172.402V19.3302ZM172.402 22.8344H178.914V21.5203H172.402V22.8344ZM190.887 36.0338C188.57 35.3913 186.614 34.7683 185.017 34.1648C183.44 33.5613 182 32.8605 180.695 32.0623V36.4718H177.25V32.1499C175.984 32.9481 174.563 33.6489 172.986 34.2524C171.429 34.8754 169.453 35.5276 167.058 36.209L165.802 33.2888C168.08 32.8021 169.978 32.2959 171.497 31.7703C173.035 31.2446 174.368 30.6606 175.497 30.0181H166.649V27.1855H177.25V25.9006H180.695V27.1855H191.296V30.0181H182.535C184.949 31.2446 188.132 32.2959 192.084 33.172L190.887 36.0338Z" fill="#1F1F1F"/>
<defs>
<filter id="filter0_f_156_506" x="16.2926" y="-41.7831" width="99.1054" height="102.873" filterUnits="userSpaceOnUse" color-interpolation-filters="sRGB">
<feFlood flood-opacity="0" result="BackgroundImageFix"/>
<feBlend mode="normal" in="SourceGraphic" in2="BackgroundImageFix" result="shape"/>
<feGaussianBlur stdDeviation="11.4739" result="effect1_foregroundBlur_156_506"/>
</filter>
<filter id="filter1_f_156_506" x="-55.5753" y="3.74156" width="124.208" height="117.772" filterUnits="userSpaceOnUse" color-interpolation-filters="sRGB">
<feFlood flood-opacity="0" result="BackgroundImageFix"/>
<feBlend mode="normal" in="SourceGraphic" in2="BackgroundImageFix" result="shape"/>
<feGaussianBlur stdDeviation="17.7494" result="effect1_foregroundBlur_156_506"/>
</filter>
<filter id="filter2_f_156_506" x="-77.4313" y="-82.4504" width="148.756" height="142.32" filterUnits="userSpaceOnUse" color-interpolation-filters="sRGB">
<feFlood flood-opacity="0" result="BackgroundImageFix"/>
<feBlend mode="normal" in="SourceGraphic" in2="BackgroundImageFix" result="shape"/>
<feGaussianBlur stdDeviation="23.8864" result="effect1_foregroundBlur_156_506"/>
</filter>
</defs>
</svg>
